<svg id="레이어_1" data-name="레이어 1" xmlns="http://www.w3.org/2000/svg" viewBox="0 0 710.22 136.89"><defs><style>.cls-1{fill:#009f9e;}.cls-2{fill:#001339;}.cls-3{fill:#848484;}</style></defs><path class="cls-1" d="M76.42,74.55l-4-3.66c2.15-2.12,4.22-4.13,6.26-6.17Q85.42,58,92.08,51.34a24.86,24.86,0,0,1,41,8.38c5.52,14.25-2,30.36-17.71,33.62a25,25,0,0,1-22.52-6c-1.58-1.37-3-2.92-4.5-4.4l3.8-3.57c1,1,2.19,2.17,3.43,3.29,6.26,5.69,13.4,7.73,21.52,4.7,10.47-3.9,15.34-16.23,10.67-26.65a19.3,19.3,0,0,0-23.23-11c-4.26,1.21-7.49,4-10.52,7.12-5.6,5.69-11.24,11.34-16.86,17C76.91,74.12,76.62,74.37,76.42,74.55Z"/><path class="cls-1" d="M52.49,54.91l-4,3.7c-.71-.77-1.51-1.66-2.34-2.53-3-3.14-6.41-5.66-10.73-6.73a19.75,19.75,0,1,0-7.71,38.73A18.5,18.5,0,0,0,44.33,83c6.47-6.17,12.73-12.56,19.08-18.86.32-.32.66-.63.9-.86L68.21,67,62.1,73C57.48,77.61,53,82.38,48.21,86.75c-7.57,6.85-16.48,8.62-26,5.16C12.82,88.51,7.38,81.5,6.12,71.6A24.46,24.46,0,0,1,26.18,44.05,24,24,0,0,1,47.9,50.53C49.4,51.93,50.87,53.36,52.49,54.91Z"/><path class="cls-1" d="M76.34,62.88l-3.86,3.84c-1.61-1.58-3.23-3.09-4.77-4.67-5.1-5.23-10.29-10.39-15.24-15.76C41.22,34.08,44.85,12.51,62.54,6.19c14.27-5.1,30.3,5.12,31.85,20.24a25.36,25.36,0,0,1-7.54,21.43c-.77.78-1.55,1.55-2.32,2.31a3.9,3.9,0,0,1-.4.31l-3.77-3.93c.81-.77,1.78-1.63,2.69-2.55,7.1-7.1,8.27-17.55,2.87-25.58A18.83,18.83,0,0,0,64.77,10.9,19.44,19.44,0,0,0,51.41,29.31a20.69,20.69,0,0,0,6.27,14.92Q66.27,53.1,75,61.88A11.42,11.42,0,0,0,76.34,62.88Z"/><path class="cls-1" d="M56.63,87l4,3.88c-1.26,1.17-2.48,2.23-3.62,3.38a19.06,19.06,0,0,0-3.75,21.24,19.38,19.38,0,0,0,17.92,11.3,18.7,18.7,0,0,0,17.9-17.64,19.21,19.21,0,0,0-5.26-14.63c-5.74-6.08-11.62-12-17.46-18a18.8,18.8,0,0,0-2-1.57l3.7-3.09c3.71,3.48,7.7,7.15,11.59,10.91C82.38,85.36,85,88,87.48,90.72c6.8,7.39,8.74,16,5.51,25.45-3,8.92-9.71,14-18.93,15.57-11.84,2-24.1-6.25-27-18.37-2.07-8.57,0-16.21,6-22.72C54.23,89.39,55.46,88.2,56.63,87Z"/><path class="cls-1" d="M84.11,82.58c-1.22-1.22-2.38-2.36-3.51-3.48,3.74-3.77,7.43-7.49,11.14-11.21,2.93-3,5.84-5.92,8.82-8.82a13.6,13.6,0,0,1,20.65,2.32,14.13,14.13,0,0,1-1.58,16.93c-3.92,4.21-10.91,5.18-16.29,2.31-2.78-1.48-4.73-3.84-6.9-6L100.2,71c1,1,2,2.12,3,3.19a9.29,9.29,0,0,0,6.7,3,8.12,8.12,0,0,0,7.89-5.39,8.8,8.8,0,0,0-2.48-9.64,8,8,0,0,0-9.17-.93,15.37,15.37,0,0,0-3.25,2.55c-5.84,5.8-11.63,11.65-17.44,17.48C85,81.72,84.58,82.14,84.11,82.58Z"/><path class="cls-1" d="M56.54,55.31c1.22,1.12,2.38,2.2,3.68,3.41L55.76,63.2q-7.09,7.06-14.2,14.13C37,81.89,31.15,83.3,25.66,81a12.55,12.55,0,0,1-8.1-11.49c-.31-5.35,1.74-9.73,6.49-12.48a12.45,12.45,0,0,1,13.83.24c2.32,1.52,4.24,3.66,6.46,5.63l-3.65,3.81c-1-1.12-1.93-2.2-2.92-3.2A9.91,9.91,0,0,0,32,60.15a8.44,8.44,0,1,0-1.8,16.78,9.25,9.25,0,0,0,7.5-2.88q9-9,18-18C56,55.79,56.33,55.51,56.54,55.31Z"/><path class="cls-1" d="M76.1,42.4l-3.62-3.64c1.18-1.23,2.43-2.41,3.53-3.71a8.48,8.48,0,0,0,1-10A7.57,7.57,0,0,0,68,21.48a8.18,8.18,0,0,0-5.52,8.16,10.49,10.49,0,0,0,3.4,7c5.48,5.57,10.92,11.18,16.38,16.78.53.54,1,1.08,1.59,1.66l-3.6,3.21c-1.2-1.13-2.7-2.42-4.07-3.83C71.07,49.17,65.89,44,61,38.6a13.74,13.74,0,0,1,.39-18.68,12.05,12.05,0,0,1,13.14-3c5,1.71,7.79,5.4,8.51,10.59a13.69,13.69,0,0,1-3.78,11.69C78.24,40.29,77.18,41.31,76.1,42.4Z"/><path class="cls-1" d="M56.92,82.49l3.68-3.08c1.18,1.22,2.57,2.71,4,4.17,5,5.15,10.07,10.25,15,15.44a13.2,13.2,0,0,1,1.54,16,11.72,11.72,0,0,1-12.2,5.6,12,12,0,0,1-10.58-9.14,13,13,0,0,1,2.87-12.81c1.09-1.26,2.28-2.43,3.31-3.52l3.77,3.62c-.65.61-1.3,1.24-2,1.85-2.22,2.06-3.68,4.46-3.56,7.62a8.17,8.17,0,0,0,5.55,7.25,7.56,7.56,0,0,0,8.31-2.73,7.83,7.83,0,0,0,.32-9,37.32,37.32,0,0,0-3.8-4.36C68,94,62.69,88.54,57.43,83.1,57.29,83,57.17,82.79,56.92,82.49Z"/><path class="cls-1" d="M312.69,25.23c3.13,0,5.64-.16,8.11,0,4.39.35,7,3.12,8.44,7,3.18,8.42,6.25,16.88,9.38,25.32.42,1.14.9,2.26,1.67,4.18,1.78-5.53,3.11-10.35,4.9-15,1.54-4,1.74-7.67-.36-11.58-1.89-3.53-3.56-7.1-7.53-8.81a3.21,3.21,0,0,1-.74-.62c.09-.3.09-.58.19-.62,6.16-2.33,14.37.78,16.87,6.86,3.68,9,6.95,18.14,10.4,27.23.22.58.45,1.16.91,2.37.57-1.5,1-2.49,1.33-3.51q4.69-14.64,9.36-29.31c1.16-3.65,1.25-3.69,5.53-2.92q-3.47,10.8-6.93,21.56-4.47,13.88-8.94,27.75c-.43,1.35-.8,2.41-2.68,2.3a2.93,2.93,0,0,1-3.1-2.24c-2.95-8.31-6-16.57-9.1-24.84-.27-.73-.63-1.44-1.22-2.78-1.85,5.75-3.53,10.91-5.17,16.08-1.2,3.77-2.33,7.57-3.52,11.34-.4,1.25-.59,2.49-2.56,2.48s-2.68-.83-3.27-2.43Q329.37,60.64,324,46.23c-1.66-4.47-3.33-8.94-5.07-13.37-1-2.46-2.17-4.76-4.94-5.75C313.51,27,313.29,26.16,312.69,25.23Z"/><path class="cls-2" d="M239.44,35.6v2.9l-5.06.51c5,3.18,7,7.19,6,12.48-1,5.69-4.91,9.27-11.36,10.26-2.84.43-5.74.33-8.61.52a9.28,9.28,0,0,0-3.15.46c-.7.3-1.11,1.25-1.65,1.91.64.52,1.23,1.38,1.93,1.48,4.53.66,9.13,1,13.64,1.74,5.31.9,9.84,3.22,11.63,8.79a11.19,11.19,0,0,1-6.5,13.82,31.91,31.91,0,0,1-25-.09c-4.19-1.72-7.12-4.74-7.18-9.55s2.6-8.25,7-10.26c.4-.17.77-.4,1.18-.61-3.43-4.21-3.33-5.93.28-9.68-1.66-2.1-3.76-4-4.83-6.26-3.54-7.65,1.31-16.35,10.09-17.46C224.93,35.67,232.07,35.88,239.44,35.6Zm-15.7,52.88c5.64,0,8.82-2.9,8.85-8.2s-4.3-9.2-9.94-9.21c-4.7,0-8.11,3.51-8.22,8.49C214.31,84.84,218.06,88.43,223.74,88.48Zm-7.06-39.83a39,39,0,0,0,.83,4.73A6.16,6.16,0,0,0,223.74,58a5.86,5.86,0,0,0,5.83-4.68,16.54,16.54,0,0,0,.6-5c-.26-5.44-2.84-8.62-6.7-8.58S217,43.11,216.68,48.65Z"/><path class="cls-2" d="M282.55,76.07h-10c0-4.28.06-8.4,0-12.52-.1-5.31,0-10.64-.54-15.91-.6-6-6.47-8.54-11.15-5.16A4.17,4.17,0,0,0,259,46.32c.16,8.92.16,17.84.22,26.76V76H248.74c0-3.44,0-6.82,0-10.21-.13-11.8-.23-23.59-.43-35.39-.05-3.27-.52-6.42-4.7-7.09a1.58,1.58,0,0,1-.88-1.28,1.58,1.58,0,0,1,1.09-1.11,95.12,95.12,0,0,1,10,0c2.71.2,4.49,2.46,4.78,5.72s.27,6.3.38,9.45c0,1,0,1.91,0,2.54,3.2-.84,6.15-2.12,9.17-2.3,7.82-.46,13.64,3.87,14.24,11.63C283.1,57.19,282.55,66.58,282.55,76.07Z"/><path class="cls-1" d="M506.35,26.78c3.63,0,6.52-.17,9.38,0,3.25.24,5.58,2.2,7.56,4.7Q534.08,45.22,545,58.82c.54.69,1.14,1.33,2.26,2.62V27.08h4.32V77.62c-2.44.72-4.16,0-5.79-2.05-8.94-11.18-18-22.26-27-33.37-.49-.6-1-1.15-2-2.27V77.21h-4.29v-2.7q0-18.92-.1-37.83c0-3.47-.26-6.78-4.64-7.7C507.19,28.89,507,27.84,506.35,26.78Z"/><path class="cls-1" d="M425.3,64.89c-.19.83-.35,1.61-.57,2.38-2.4,8.64-3.7,9.6-12.6,9.5-6.66-.07-13.33-.08-20-.12-.88,0-1.76,0-3,0,0-5.1,0-9.94,0-14.78q-.06-13.63-.15-27.28c0-4.15-.59-4.9-4.31-6.42-.5-.21-.78-1-1.16-1.44.55-.3,1.09-.86,1.65-.87,3.51-.09,7,0,10.54-.05,6.58,0,13.16-.09,19.73,0,4.57,0,6.22,1.43,6.82,5.93a51.43,51.43,0,0,1,.05,6.69c-1.57.57-2.2.14-2.53-1.57-1-5-3.07-6.77-8.13-7-4-.13-8.08,0-12.34,0V48.35h18.59v4H399.1v9.52c0,2.88.09,5.77,0,8.65,0,1.74.68,2.41,2.41,2.37,3.33-.06,6.67,0,10,0A10.36,10.36,0,0,0,422,66.22C422.59,64.77,423.28,63.88,425.3,64.89Z"/><path class="cls-1" d="M603.36,61.62c2-.79,2.65,0,3,1.8,1.55,8.18,7.91,13.1,15.3,11.92,3.2-.52,5.89-1.93,6.76-5.38a7.22,7.22,0,0,0-3-8.3c-3.57-2.43-7.29-4.65-10.93-7-1.82-1.16-3.69-2.26-5.44-3.53-4.84-3.52-6.71-8.35-5.78-14.19.87-5.5,4.45-8.71,9.55-10.29a23.07,23.07,0,0,1,16.87,1c3.94,1.81,6.3,4.7,6.11,9.28-.08,1.87,0,3.75,0,5.58-1.93.87-2.5.14-3-1.52-1.33-4.94-3.42-9.5-9-10.83a15.27,15.27,0,0,0-6.89,0,6.78,6.78,0,0,0-3.43,11.16,34.74,34.74,0,0,0,6.85,5.18c3.63,2.34,7.42,4.43,11.08,6.73a13.5,13.5,0,0,1,6.64,10.58c.68,6.84-2.75,12.34-9.56,14.45a25,25,0,0,1-19.67-1.51c-3.58-1.86-5.67-4.61-5.5-8.82C603.43,65.86,603.36,63.71,603.36,61.62Z"/><path class="cls-1" d="M644,61.62h2.64c.11.48.22.89.31,1.31,1.53,7.59,5.85,12.09,12.39,12.69a13.13,13.13,0,0,0,4.54-.4,7.23,7.23,0,0,0,3.32-12.37,42.58,42.58,0,0,0-7-5c-3.18-2-6.53-3.82-9.67-5.93-5.64-3.79-7.89-9.29-6.52-15.35,1.27-5.57,5.85-9.45,12.39-10.49a23.62,23.62,0,0,1,14.21,2.06,9.44,9.44,0,0,1,5.85,9.22,34.19,34.19,0,0,1,0,4.05c-.07.61-.69,1.17-1.07,1.75-.59-.49-1.43-.87-1.73-1.5-.67-1.46-.94-3.1-1.63-4.56a12.17,12.17,0,0,0-12.7-7.25,7,7,0,0,0-6.46,4.93,6.57,6.57,0,0,0,2.27,8c3.44,2.44,7.17,4.46,10.75,6.72,2.66,1.68,5.39,3.29,7.87,5.22,4.49,3.49,5.92,8.24,4.83,13.74-1.06,5.31-4.55,8.52-9.54,10-6.61,2-13.16,1.88-19.4-1.47-3.78-2-6.08-5-5.64-9.57C644.17,65.58,644,63.69,644,61.62Z"/><path class="cls-1" d="M563.1,77.6c0-10.38,0-20.18,0-30,0-4,0-8.11-.11-12.15-.09-2.83-.73-5.39-4.22-6-.54-.09-.91-1.09-1.38-1.68.55-.39.69-.58.83-.58,10.63,0,21.25-.06,31.88,0,3.24,0,5,1.73,5.37,4.93.23,2.39,0,4.83,0,7.33-1.45.65-2.22.36-2.58-1.37-1.11-5.4-3.18-7.06-8.71-7.11-3.68,0-7.35,0-11.2,0V49.27h18.14V53.2H573c0,2.56,0,4.85,0,7.15,0,3.69.08,7.38,0,11.07,0,1.72.63,2.41,2.4,2.34,3.15-.12,6.31-.17,9.46,0,5.16.24,8.62-2.11,10.64-6.7.7-1.59,1.47-2.42,3.17-1.3a1.72,1.72,0,0,1,.09.52c-2.61,10.63-3.57,11.38-14.43,11.35C577.41,77.58,570.5,77.6,563.1,77.6Z"/><path class="cls-2" d="M303.09,41.54c0,8.86-.32,17.31.11,25.71.28,5.67,4.53,7.21,9.77,4,2,1.42,1.54,2.7-.27,3.84a14.21,14.21,0,0,1-13.92,1.11c-4.46-1.94-5.82-6-6-10.38-.29-7.1-.33-14.21-.47-21.31,0-.88,0-1.76,0-2.73l-4.12-.51V37.75c.25-.11.5-.34.71-.3,2.89.46,3.37-1,3.31-3.54-.16-6.7,3.75-10.33,10.53-9.74V37.32h8.12v4.22Z"/><path class="cls-1" d="M507.42,73.64V77H472.94c0-6.26,0-12.26,0-18.26q0-11.2-.16-22.41c0-3.56-.31-7-4.91-7.69a1.45,1.45,0,0,1-.77-1.14,1.35,1.35,0,0,1,1-.87,100,100,0,0,1,10.25.14c2.66.25,4.14,2.38,4.23,5.74.22,8.36.31,16.73.42,25.1,0,4.05,0,8.1,0,12.15,0,3.62,0,3.62,3.75,3.63l17.83.09C505.46,73.49,506.34,73.58,507.42,73.64Z"/><path class="cls-1" d="M432.79,76.8c0-4.48,0-8.77,0-13.07q-.07-13.9-.19-27.82c0-3.42-.56-6.53-4.78-7.34-.48-.09-.77-1.15-1.49-2.3,4.1,0,7.43-.12,10.74,0,3.64.16,5.46,2.23,5.51,6.29.13,10.09.14,20.17.2,30.26,0,2.07,0,4.14,0,6.21,0,4,0,4,3.95,4l18.11,0h2.53V76.8Z"/><path class="cls-2" d="M164.61,39.39c3.07-2.52,6.49-4.11,10.29-3.28,2.12.46,4.11,1.9,5.91,3.23.58.43.67,2.74.47,2.81-1.51.57-2.73,2.85-4.71,1.28A6.8,6.8,0,0,0,170,41.94c-2.7.86-4,2.93-4,5.9,0,9.25,0,18.51,0,28H155.62c0-6.08,0-12.08,0-18.08,0-4.14-.05-8.28-.2-12.42-.11-2.88-.53-5.63-4.19-6.3-.43-.07-.67-1.23-1.29-2.45C155.3,37.15,160.36,34.85,164.61,39.39Z"/><path class="cls-2" d="M182.13,36.57c3.81,0,6.67,0,9.54,0,4.13.06,6.44,2,6.86,6.05.38,3.75.47,7.53.5,11.31.08,7.27,0,14.54,0,22H188.65c0-3.39,0-6.68,0-10-.08-6.65-.1-13.31-.34-19.95-.12-3.16-.41-6.46-4.73-7C183.17,39,182.9,37.92,182.13,36.57Z"/><path class="cls-2" d="M187.22,25.93a5.77,5.77,0,0,1,5.7-5.66,5.91,5.91,0,0,1,5.6,5.81A5.64,5.64,0,0,1,193,31.84,5.83,5.83,0,0,1,187.22,25.93Z"/><path class="cls-1" d="M700.07,37.77c1.24-2.82,2.38-5.25,3.36-7.73.57-1.44,1.45-1.83,3.18-1.25V41.27c-1.31.26-2.07-.4-2.09-1.93,0-2.36,0-4.72,0-7.08l-.69-.16-4.27,9.45L695,31.89l-.66.13v8.89l-.63,0V28.75c1.37-.71,2.2-.16,2.84,1.32C697.56,32.53,698.75,34.93,700.07,37.77Z"/><path class="cls-1" d="M686.57,41.3c-.38-.59-1.07-1.16-1.1-1.76a56.09,56.09,0,0,1,0-6.86c.21-3.06-.38-3.9-4.2-1.85.52-1.08.79-2.19,1.11-2.2,2.93-.13,5.86-.08,8.8-.08l0,.87-3.63.45V40.76Z"/><path class="cls-1" d="M155.83,103.37H162a6.6,6.6,0,0,1,2.32.38,4.73,4.73,0,0,1,1.69,1.06,4.26,4.26,0,0,1,.85,1.38,4.8,4.8,0,0,1,.3,1.73v0a4.75,4.75,0,0,1-.25,1.6,4.08,4.08,0,0,1-.68,1.25,4,4,0,0,1-1,.93,5.4,5.4,0,0,1-1.34.59l3.75,5.45h-2.88l-3.42-5h-3.07v5h-2.42Zm6,7.14a3.13,3.13,0,0,0,2.09-.65,2.19,2.19,0,0,0,.77-1.76v0a2.16,2.16,0,0,0-.76-1.79,3.32,3.32,0,0,0-2.12-.6h-3.57v4.85Z"/><path class="cls-1" d="M176.13,103.37H186.4v2.29h-7.85v3.7h7v2.29h-7v3.85h7.95v2.28H176.13Z"/><path class="cls-1" d="M194.18,103.37h2.69l4.19,11.08,4.16-11.08h2.64l-5.77,14.52H200Z"/><path class="cls-1" d="M216.33,103.37h2.42v14.41h-2.42Z"/><path class="cls-1" d="M227.24,103.37h2.7l4.18,11.08,4.17-11.08h2.64l-5.78,14.52H233Z"/><path class="cls-1" d="M249.26,103.37h10.27v2.29h-7.85v3.7h7v2.29h-7v3.85h7.95v2.28H249.26Z"/><path class="cls-1" d="M286.35,103.37h6.19a6.68,6.68,0,0,1,2.32.38,4.78,4.78,0,0,1,1.68,1.06,4.28,4.28,0,0,1,.86,1.38,5,5,0,0,1,.29,1.73v0a4.75,4.75,0,0,1-.25,1.6,4.08,4.08,0,0,1-.68,1.25,4,4,0,0,1-1,.93,5.24,5.24,0,0,1-1.34.59l3.75,5.45h-2.88l-3.42-5h-3.06v5h-2.42Zm6,7.14a3.13,3.13,0,0,0,2.09-.65,2.19,2.19,0,0,0,.77-1.76v0a2.19,2.19,0,0,0-.75-1.79,3.37,3.37,0,0,0-2.13-.6h-3.56v4.85Z"/><path class="cls-1" d="M306.64,103.37h10.27v2.29h-7.85v3.7h7v2.29h-7v3.85H317v2.28H306.64Z"/><path class="cls-1" d="M324.69,103.37h2.7l4.18,11.08,4.17-11.08h2.63l-5.77,14.52h-2.14Z"/><path class="cls-1" d="M346.84,103.37h2.42v14.41h-2.42Z"/><path class="cls-1" d="M362.35,105.72H358v-2.35h11.27v2.35h-4.41v12.06h-2.46Z"/><path class="cls-1" d="M382.66,103.27h2.27l6.1,14.51h-2.57l-1.41-3.48h-6.57l-1.43,3.48h-2.5Zm3.5,8.79-2.41-5.77-2.37,5.77Z"/><path class="cls-1" d="M399.37,103.37h2.42V115.5h7.29v2.28h-9.71Z"/><path class="cls-1" d="M417.73,103.37h2.42v14.41h-2.42Z"/><path class="cls-1" d="M434.71,118a8.37,8.37,0,0,1-3.07-.57,8.07,8.07,0,0,1-2.72-1.74l1.47-1.81a8.13,8.13,0,0,0,2,1.39,5.5,5.5,0,0,0,2.34.49,3,3,0,0,0,1.8-.5,1.57,1.57,0,0,0,.66-1.32v0a1.67,1.67,0,0,0-.13-.69,1.46,1.46,0,0,0-.48-.56,3.62,3.62,0,0,0-.95-.5,13.55,13.55,0,0,0-1.58-.45,14.6,14.6,0,0,1-2-.61,5.4,5.4,0,0,1-1.45-.82,3.21,3.21,0,0,1-.9-1.19,4.23,4.23,0,0,1-.31-1.68v0a4,4,0,0,1,.36-1.7,3.83,3.83,0,0,1,1-1.31,4.55,4.55,0,0,1,1.49-.86,5.82,5.82,0,0,1,1.9-.31,7.66,7.66,0,0,1,2.75.47,8,8,0,0,1,2.29,1.35l-1.31,1.91a8.2,8.2,0,0,0-1.88-1.1,5,5,0,0,0-1.88-.38,2.54,2.54,0,0,0-1.67.49,1.53,1.53,0,0,0-.6,1.22v0a1.86,1.86,0,0,0,.14.73,1.45,1.45,0,0,0,.51.58,4.34,4.34,0,0,0,1,.48c.43.15,1,.31,1.64.47a17,17,0,0,1,1.94.64,5,5,0,0,1,1.41.86,3.24,3.24,0,0,1,.84,1.17,4,4,0,0,1,.29,1.56v0a4.4,4.4,0,0,1-.36,1.81,3.93,3.93,0,0,1-1,1.36,4.33,4.33,0,0,1-1.56.84A6.66,6.66,0,0,1,434.71,118Z"/><path class="cls-1" d="M448.48,103.37h10.27v2.29H450.9v3.7h7v2.29h-7v3.85h8v2.28H448.48Z"/><path class="cls-1" d="M485.57,103.37h6.18a6.7,6.7,0,0,1,2.33.38,4.78,4.78,0,0,1,1.68,1.06,4.09,4.09,0,0,1,.85,1.38,4.8,4.8,0,0,1,.3,1.73v0a4.75,4.75,0,0,1-.25,1.6,4.08,4.08,0,0,1-.68,1.25,4,4,0,0,1-1,.93,5.24,5.24,0,0,1-1.34.59l3.75,5.45h-2.88l-3.42-5H488v5h-2.42Zm6,7.14a3.13,3.13,0,0,0,2.09-.65,2.19,2.19,0,0,0,.77-1.76v0a2.19,2.19,0,0,0-.75-1.79,3.37,3.37,0,0,0-2.13-.6H488v4.85Z"/><path class="cls-1" d="M505.86,103.37h10.27v2.29h-7.85v3.7h7v2.29h-7v3.85h8v2.28H505.86Z"/><path class="cls-1" d="M531.68,118a7.57,7.57,0,0,1-2.95-.56,6.55,6.55,0,0,1-2.27-1.57,7,7,0,0,1-1.46-2.35,8,8,0,0,1-.52-2.93v0a7.94,7.94,0,0,1,.53-2.87,7.27,7.27,0,0,1,1.49-2.37,7.17,7.17,0,0,1,2.28-1.62,6.88,6.88,0,0,1,2.88-.6,9.35,9.35,0,0,1,1.66.14,7.35,7.35,0,0,1,1.38.38,7.47,7.47,0,0,1,1.2.6,9.18,9.18,0,0,1,1.1.84L535.45,107a8,8,0,0,0-.81-.63,4.48,4.48,0,0,0-.88-.49,5.34,5.34,0,0,0-1-.31,6.29,6.29,0,0,0-1.2-.11,4,4,0,0,0-1.77.41,4.71,4.71,0,0,0-1.43,1.11,5.21,5.21,0,0,0-1,1.62,5.58,5.58,0,0,0-.35,2v0a6,6,0,0,0,.34,2.06,4.54,4.54,0,0,0,2.44,2.7,4.47,4.47,0,0,0,1.93.4,5.56,5.56,0,0,0,1.85-.3,5.17,5.17,0,0,0,1.49-.8v-2.71h-3.55v-2.21h5.91v6.06a9.43,9.43,0,0,1-1.14.86,7.23,7.23,0,0,1-1.35.72,8.26,8.26,0,0,1-1.55.49A9,9,0,0,1,531.68,118Z"/><path class="cls-1" d="M546.6,103.37h10.27v2.29H549v3.7h7v2.29h-7v3.85h8v2.28H546.6Z"/><path class="cls-1" d="M565.84,103.37h2.25l7.43,10v-10h2.42v14.41h-2l-7.64-10.25v10.25h-2.42Z"/><path class="cls-1" d="M587.46,103.37h10.27v2.29h-7.85v3.7h7v2.29h-7v3.85h8v2.28H587.46Z"/><path class="cls-1" d="M606.7,103.37h6.19a6.68,6.68,0,0,1,2.32.38,4.78,4.78,0,0,1,1.68,1.06,4.28,4.28,0,0,1,.86,1.38,5,5,0,0,1,.29,1.73v0a4.75,4.75,0,0,1-.25,1.6,4.08,4.08,0,0,1-.68,1.25,4,4,0,0,1-1,.93,5.24,5.24,0,0,1-1.34.59l3.75,5.45H615.6l-3.42-5h-3.06v5H606.7Zm6,7.14a3.13,3.13,0,0,0,2.09-.65,2.19,2.19,0,0,0,.77-1.76v0a2.19,2.19,0,0,0-.75-1.79,3.37,3.37,0,0,0-2.13-.6h-3.56v4.85Z"/><path class="cls-1" d="M631.91,103.27h2.26l6.11,14.51H637.7l-1.41-3.48h-6.56l-1.43,3.48h-2.5Zm3.49,8.79-2.4-5.77-2.38,5.77Z"/><path class="cls-1" d="M652,105.72h-4.4v-2.35h11.26v2.35h-4.4v12.06H652Z"/><path class="cls-1" d="M667.41,103.37h10.28v2.29h-7.86v3.7h7v2.29h-7v3.85h8v2.28H667.41Z"/><path class="cls-3" d="M272,111.28a1.73,1.73,0,1,0-1.72,1.72A1.72,1.72,0,0,0,272,111.28Z"/><path class="cls-1" d="M467.8,111.28a1.73,1.73,0,1,0-1.73,1.72A1.72,1.72,0,0,0,467.8,111.28Z"/></svg>