<svg id="레이어_1" data-name="레이어 1" xmlns="http://www.w3.org/2000/svg" viewBox="0 0 140 136.89"><defs><style>.cls-1{fill:#009f9e;}</style></defs><path class="cls-1" d="M76.42,74.55l-4-3.66c2.15-2.12,4.22-4.13,6.26-6.17l13.4-13.38a24.86,24.86,0,0,1,41,8.38c5.52,14.25-2,30.36-17.71,33.62a25,25,0,0,1-22.52-6c-1.58-1.37-3-2.92-4.5-4.4l3.8-3.57c1,1,2.19,2.17,3.43,3.29,6.26,5.69,13.4,7.73,21.52,4.7,10.47-3.9,15.34-16.23,10.67-26.65a19.3,19.3,0,0,0-23.23-11c-4.26,1.21-7.49,4-10.52,7.12-5.6,5.69-11.24,11.34-16.86,17A8,8,0,0,1,76.42,74.55Z"/><path class="cls-1" d="M52.49,54.91l-4,3.7c-.71-.77-1.51-1.66-2.34-2.53a22.24,22.24,0,0,0-10.73-6.73,19.75,19.75,0,1,0-8.58,38.56l.87.17A18.49,18.49,0,0,0,44.33,83c6.47-6.17,12.73-12.56,19.08-18.86.32-.32.66-.63.9-.86L68.21,67,62.1,73c-4.62,4.61-9.1,9.38-13.89,13.75-7.57,6.85-16.48,8.62-26,5.16S7.38,81.5,6.12,71.6A24.46,24.46,0,0,1,26.18,44.05,24,24,0,0,1,47.9,50.53C49.4,51.93,50.87,53.36,52.49,54.91Z"/><path class="cls-1" d="M76.34,62.88l-3.86,3.84c-1.61-1.58-3.23-3.09-4.77-4.67-5.1-5.23-10.29-10.39-15.24-15.76C41.22,34.08,44.85,12.51,62.54,6.19c14.27-5.1,30.3,5.12,31.85,20.24a25.36,25.36,0,0,1-7.54,21.43c-.77.78-1.55,1.55-2.32,2.31a3.9,3.9,0,0,1-.4.31l-3.77-3.93c.81-.77,1.78-1.63,2.69-2.55,7.1-7.1,8.27-17.55,2.87-25.58A18.83,18.83,0,0,0,64.77,10.9,19.44,19.44,0,0,0,51.41,29.31a20.7,20.7,0,0,0,6.27,14.92Q66.27,53.1,75,61.88A10.85,10.85,0,0,0,76.34,62.88Z"/><path class="cls-1" d="M56.63,87l4,3.88c-1.26,1.17-2.48,2.23-3.62,3.38a19.06,19.06,0,0,0-3.75,21.24,19.37,19.37,0,0,0,17.92,11.3,18.7,18.7,0,0,0,17.9-17.64,19.19,19.19,0,0,0-5.26-14.63c-5.74-6.08-11.62-12-17.46-18a18.92,18.92,0,0,0-2-1.57l3.7-3.09c3.71,3.48,7.7,7.15,11.59,10.91C82.38,85.36,85,88,87.48,90.72c6.8,7.39,8.74,16,5.51,25.45-3,8.92-9.71,14-18.93,15.57-11.84,2-24.1-6.25-27-18.37-2.07-8.57,0-16.21,6-22.72C54.23,89.39,55.46,88.2,56.63,87Z"/><path class="cls-1" d="M84.11,82.58c-1.22-1.22-2.38-2.36-3.51-3.48,3.74-3.77,7.43-7.49,11.14-11.21,2.93-3,5.84-5.92,8.82-8.82a13.6,13.6,0,0,1,20.65,2.32,14.13,14.13,0,0,1-1.58,16.93c-3.92,4.21-10.91,5.18-16.29,2.31-2.78-1.48-4.73-3.84-6.9-6L100.2,71c1,1,2,2.12,3,3.19a9.29,9.29,0,0,0,6.7,3,8.12,8.12,0,0,0,7.89-5.39,8.8,8.8,0,0,0-2.48-9.64,8,8,0,0,0-9.17-.93,15.44,15.44,0,0,0-3.25,2.55c-5.84,5.8-11.63,11.65-17.44,17.48C85,81.72,84.58,82.14,84.11,82.58Z"/><path class="cls-1" d="M56.54,55.31c1.22,1.12,2.38,2.2,3.68,3.41L55.76,63.2,41.56,77.33C37,81.89,31.15,83.3,25.66,81a12.56,12.56,0,0,1-8.1-11.49c-.31-5.35,1.74-9.73,6.49-12.48a12.46,12.46,0,0,1,13.83.24c2.32,1.52,4.24,3.66,6.46,5.63l-3.65,3.81c-1-1.12-1.93-2.2-2.92-3.2A10,10,0,0,0,32,60.15a8.44,8.44,0,1,0-2.15,16.74l.35,0a9.26,9.26,0,0,0,7.5-2.88l18-18C56,55.79,56.33,55.51,56.54,55.31Z"/><path class="cls-1" d="M76.1,42.4l-3.62-3.64c1.18-1.23,2.43-2.41,3.53-3.71a8.47,8.47,0,0,0,1-10,7.57,7.57,0,0,0-9-3.57,8.17,8.17,0,0,0-5.52,8.16,10.47,10.47,0,0,0,3.4,7c5.48,5.57,10.92,11.18,16.38,16.78.53.54,1,1.08,1.59,1.66l-3.6,3.21c-1.2-1.13-2.7-2.42-4.07-3.83C71.07,49.17,65.89,44,61,38.6a13.73,13.73,0,0,1,.39-18.68,12,12,0,0,1,13.14-3c5,1.71,7.79,5.4,8.51,10.59A13.67,13.67,0,0,1,79.26,39.2C78.24,40.29,77.18,41.31,76.1,42.4Z"/><path class="cls-1" d="M56.92,82.49l3.68-3.08c1.18,1.22,2.57,2.71,4,4.17,5,5.15,10.07,10.25,15,15.44a13.19,13.19,0,0,1,1.54,16,11.72,11.72,0,0,1-12.2,5.6,12,12,0,0,1-10.58-9.14,13,13,0,0,1,2.87-12.81c1.09-1.26,2.28-2.43,3.31-3.52l3.77,3.62c-.65.61-1.3,1.24-2,1.85-2.22,2.06-3.68,4.46-3.56,7.62a8.17,8.17,0,0,0,5.55,7.25,7.56,7.56,0,0,0,8.31-2.73,7.84,7.84,0,0,0,.32-9,36.64,36.64,0,0,0-3.8-4.36C68,94,62.69,88.54,57.43,83.1A4.6,4.6,0,0,1,56.92,82.49Z"/></svg>